<svg width="1499" height="500" viewBox="0 0 1499 500" fill="none" xmlns="http://www.w3.org/2000/svg">
<rect width="1499" height="500" fill="black"/>
<path d="M98.6234 184.086C98.6234 196.039 106.006 203.633 120.561 206.797L132.162 209.258C140.319 211.016 143.272 213.125 143.272 217.484C143.272 222.547 138.209 225.852 130.334 225.852C122.319 225.852 117.116 222.898 115.92 217.555H96.9359C97.9906 232.109 110.225 240.617 130.053 240.617C150.233 240.617 163.03 230.703 163.03 215.023C163.03 203.211 156.069 196.531 140.389 193.297L128.366 190.836C120.842 189.289 117.608 186.758 117.608 182.539C117.608 177.617 122.459 174.312 129.772 174.312C136.944 174.312 142.006 177.477 142.92 182.609H161.061C160.147 168.055 148.686 159.617 129.912 159.617C110.717 159.617 98.6234 169.039 98.6234 184.086ZM211.182 181.344V161.445H176.448V175.648H192.62V224.867H177.854V239H233.542V224.867H211.042V204.617C211.042 187.953 219.972 179.656 238.253 179.656C242.612 179.656 247.675 180.57 251.19 181.906V161.023C248.448 159.969 244.511 159.406 240.151 159.406C225.526 159.406 217.581 165.945 214.206 181.344H211.182ZM295.968 174.734C305.671 174.734 311.437 181.414 311.437 192.523H280.007C280.007 181.414 285.984 174.734 295.968 174.734ZM311.859 217.203C310.452 222.266 304.335 225.781 296.601 225.781C286.546 225.781 280.007 219.172 280.007 209.047V204.828H329.999V194.141C329.999 173.328 316.851 159.828 296.32 159.828C275.226 159.828 261.163 173.258 261.163 193.578V206.023C261.163 228.031 274.101 240.688 296.671 240.688C314.671 240.688 328.382 230.914 329.999 217.203H311.859ZM378.504 174.734C388.207 174.734 393.972 181.414 393.972 192.523H362.543C362.543 181.414 368.519 174.734 378.504 174.734ZM394.394 217.203C392.988 222.266 386.871 225.781 379.137 225.781C369.082 225.781 362.543 219.172 362.543 209.047V204.828H412.535V194.141C412.535 173.328 399.387 159.828 378.855 159.828C357.762 159.828 343.699 173.258 343.699 193.578V206.023C343.699 228.031 356.637 240.688 379.207 240.688C397.207 240.688 410.918 230.914 412.535 217.203H394.394ZM444.094 139.297V162.219H423.914V177.617H444.094V214.461C444.094 232.461 452.18 239.141 473.274 239.141C474.821 239.141 490.149 239 490.922 238.859V223.672C490.078 223.742 476.649 223.812 474.821 223.812C467.438 223.812 463.289 220.508 463.289 214.672V177.617H491.836V162.219H462.938V139.297H444.094ZM532.184 240.266C542.309 240.266 550.466 235.977 554.262 228.664H555.95V239H574.231V186.406C574.231 169.461 563.052 159.969 543.153 159.969C524.731 159.969 512.005 169.039 510.598 183.102H529.302C530.919 178.25 535.911 175.297 542.591 175.297C550.536 175.297 555.177 179.234 555.177 185.984V192.172L537.036 193.297C517.911 194.633 507.716 202.859 507.716 216.852C507.716 230.844 517.559 240.266 532.184 240.266ZM538.794 224.867C531.341 224.867 526.7 221.211 526.7 215.445C526.7 209.469 531.27 206.023 540.27 205.461L555.177 204.547V210.172C555.177 218.82 548.356 224.867 538.794 224.867ZM664.361 178.812C664.361 166.508 659.157 159.828 649.595 159.828C642.212 159.828 636.798 164.68 635.181 172.977H633.142C631.525 164.609 626.603 159.828 619.572 159.828C611.907 159.828 606.634 164.68 604.876 173.609H602.837V161.445H586.032V239H602.345V185.773C602.345 180.078 605.368 176.422 610.009 176.422C614.579 176.422 617.181 179.727 617.181 185.281V239H633.282V185.773C633.282 180.078 636.306 176.422 640.876 176.422C645.306 176.422 648.048 179.727 648.048 185.281V239H664.361V178.812ZM690.506 193.508C690.506 182.82 696.623 176.352 706.607 176.352C716.521 176.352 722.568 182.82 722.568 193.508V206.305C722.568 216.992 716.521 223.531 706.607 223.531C696.623 223.531 690.506 216.992 690.506 206.305V193.508ZM722.357 225.641V239H742.185V131.914H722.076V174.664H720.67C718.068 165.383 710.334 160.18 699.154 160.18C681.435 160.18 670.888 172.414 670.888 193.508V206.867C670.888 227.961 681.435 240.195 699.154 240.195C710.545 240.195 718.209 235.062 720.881 225.641H722.357ZM779.791 240.266C789.916 240.266 798.072 235.977 801.869 228.664H803.557V239H821.838V186.406C821.838 169.461 810.658 159.969 790.76 159.969C772.338 159.969 759.612 169.039 758.205 183.102H776.908C778.526 178.25 783.518 175.297 790.197 175.297C798.143 175.297 802.783 179.234 802.783 185.984V192.172L784.643 193.297C765.518 194.633 755.322 202.859 755.322 216.852C755.322 230.844 765.166 240.266 779.791 240.266ZM786.401 224.867C778.947 224.867 774.307 221.211 774.307 215.445C774.307 209.469 778.877 206.023 787.877 205.461L802.783 204.547V210.172C802.783 218.82 795.963 224.867 786.401 224.867ZM841.444 184.086C841.444 196.039 848.827 203.633 863.382 206.797L874.983 209.258C883.139 211.016 886.092 213.125 886.092 217.484C886.092 222.547 881.03 225.852 873.155 225.852C865.139 225.852 859.936 222.898 858.741 217.555H839.757C840.811 232.109 853.046 240.617 872.874 240.617C893.053 240.617 905.85 230.703 905.85 215.023C905.85 203.211 898.889 196.531 883.21 193.297L871.186 190.836C863.663 189.289 860.428 186.758 860.428 182.539C860.428 177.617 865.28 174.312 872.592 174.312C879.764 174.312 884.827 177.477 885.741 182.609H903.882C902.967 168.055 891.507 159.617 872.733 159.617C853.538 159.617 841.444 169.039 841.444 184.086ZM940.855 254.469L989.089 122.07H969.331L921.589 254.469H940.855ZM1006.52 184.086C1006.52 196.039 1013.9 203.633 1028.45 206.797L1040.05 209.258C1048.21 211.016 1051.16 213.125 1051.16 217.484C1051.16 222.547 1046.1 225.852 1038.23 225.852C1030.21 225.852 1025.01 222.898 1023.81 217.555H1004.83C1005.88 232.109 1018.12 240.617 1037.94 240.617C1058.12 240.617 1070.92 230.703 1070.92 215.023C1070.92 203.211 1063.96 196.531 1048.28 193.297L1036.26 190.836C1028.73 189.289 1025.5 186.758 1025.5 182.539C1025.5 177.617 1030.35 174.312 1037.66 174.312C1044.84 174.312 1049.9 177.477 1050.81 182.609H1068.95C1068.04 168.055 1056.58 159.617 1037.8 159.617C1018.61 159.617 1006.52 169.039 1006.52 184.086ZM1104.38 139.297V162.219H1084.2V177.617H1104.38V214.461C1104.38 232.461 1112.46 239.141 1133.56 239.141C1135.11 239.141 1150.43 239 1151.21 238.859V223.672C1150.36 223.742 1136.93 223.812 1135.11 223.812C1127.72 223.812 1123.57 220.508 1123.57 214.672V177.617H1152.12V162.219H1123.22V139.297H1104.38ZM1192.47 240.266C1202.59 240.266 1210.75 235.977 1214.55 228.664H1216.23V239H1234.52V186.406C1234.52 169.461 1223.34 159.969 1203.44 159.969C1185.02 159.969 1172.29 169.039 1170.88 183.102H1189.59C1191.2 178.25 1196.2 175.297 1202.88 175.297C1210.82 175.297 1215.46 179.234 1215.46 185.984V192.172L1197.32 193.297C1178.2 194.633 1168 202.859 1168 216.852C1168 230.844 1177.84 240.266 1192.47 240.266ZM1199.08 224.867C1191.63 224.867 1186.98 221.211 1186.98 215.445C1186.98 209.469 1191.56 206.023 1200.56 205.461L1215.46 204.547V210.172C1215.46 218.82 1208.64 224.867 1199.08 224.867ZM1320.57 188.516C1318.74 169.531 1307.07 159.547 1287.03 159.547C1264.18 159.547 1251.52 172.484 1251.52 196.039V204.195C1251.52 227.75 1264.18 240.688 1287.03 240.688C1307.07 240.688 1318.88 230.844 1320.57 212.352H1301.72C1300.39 220.648 1295.33 224.656 1286.89 224.656C1276.55 224.656 1270.86 216.922 1270.86 202.719V197.516C1270.86 183.312 1276.55 175.578 1286.89 175.578C1295.26 175.578 1300.46 179.797 1301.72 188.516H1320.57ZM1409.01 239L1378.35 193.719L1407.04 161.445H1385.03L1358.03 192.594H1356.84V131.914H1337.64V239H1356.84V213.266L1364.22 205.812L1386.72 239H1409.01Z" fill="white"/>
</svg>
